<svg id="Layer_1" enable-background="new 0 0 512.218 512.218" height="512" viewBox="0 0 512.218 512.218" width="512" xmlns="http://www.w3.org/2000/svg"><g><g><path d="m237.631 136.007h-87.391c-3.173 0-5.743 2.625-5.629 5.797.886 24.694 7.929 48.722 20.097 68.451 45.622-24.43 94.192-33.26 142.942-25.504-8.032-29.874-36.335-48.744-70.019-48.744z"/><path d="m315.525 426.151c34.078-9.377 59.939-28.477 74.334-41.262 19.478-17.299 31.029-33.569 37.177-44.881 4.692-8.632 5.119-18.99 1.055-27.935-5.843-12.863-16.901-31.105-34.234-48.136-21.978-21.594-48.099-35.915-77.996-42.832-25.517 28.531-39.475 64.666-39.475 102.713 0 37.878 13.837 73.861 39.139 102.333zm38.419-139.716c8.53 0 15.445 6.915 15.445 15.445s-6.915 15.445-15.445 15.445-15.445-6.915-15.445-15.445 6.915-15.445 15.445-15.445z"/><path d="m276.312 431.732c-22.207-31.564-34.172-68.902-34.172-107.914 0-38.844 11.866-76.027 33.889-107.504-75.997-3.145-146.632 51.709-186.524 100.752-2.917 3.537-3.007 8.606-.216 12.242 49.135 63.564 116.448 103.58 187.023 102.424z"/><path d="m52.138 309.299c4.81-6.612 15.926-21.091 32.519-38.022v-3.292c0-23.805-19.298-43.102-43.102-43.102h-34.705c-3.783 0-6.85 3.067-6.85 6.85v20.078c0 29.996 22.88 54.671 52.138 57.488z"/><path d="m274.59 466.007c-37.774 0-75.003-9.53-110.065-27.901-11.339 18.483-18.431 41.004-19.777 65.04-.272 4.861 3.547 8.972 8.416 8.972h84.467c33.623 0 61.882-19.152 69.971-49.042-10.896 1.937-21.909 2.931-33.012 2.931z"/><path d="m51.941 336.068c-29.164 2.903-51.941 27.51-51.941 57.44v20.078c0 3.783 3.067 6.85 6.85 6.85h34.705c23.805 0 43.102-19.297 43.102-43.102v-.732c-16.787-17.776-27.808-33.199-32.716-40.534z"/></g><path d="m497.218 92.262h-15.361l.105-77.051c.061-8.284-6.604-15.049-14.889-15.111-.038 0-.076 0-.113 0-8.232 0-14.937 6.643-14.998 14.889l-.106 77.273h-18.99c-8.284 0-15 6.716-15 15s6.716 15 15 15h18.949l-.08 58.078c0 .093 0 .186.001.279.053 4.768-1.765 9.262-5.117 12.652-3.354 3.391-7.825 5.258-12.594 5.258-9.767 0-17.713-7.945-17.713-17.712v-20.3c0-8.284-6.716-15-15-15s-15 6.716-15 15v20.3c0 26.309 21.404 47.712 47.713 47.712 12.845 0 24.893-5.03 33.925-14.163 8.997-9.098 13.89-21.143 13.786-33.931l.079-58.173h15.402c8.284 0 15-6.716 15-15s-6.714-15-14.999-15z"/></g></svg>